# xmcd CD database file
#
# Track frame offsets:
#	150
#	15536
#	29840
#	55333
#	70755
#	94173
#	116185
#	129504
#	141948
#	153848
#	166702
#	178713
#	191480
#	209447
#	223913
#	247167
#	268249
#	283884
#
# Disc length: 3972 seconds
#
# Revision: 0
# Processed by: cddbd v1.5.2PL0 Copyright (c) Steve Scherf et al.
# Submitted via: CDex 1.70beta2
#
DISCID=1d0f8212
DTITLE=Muddy Waters - Big Legend Woman
DYEAR=1900
DGENRE=Blues
TTITLE0=Big Legend Woman
TTITLE1=You Gonna Need My Help
TTITLE2=After Hour
TTITLE3=Junior Shuffle
TTITLE4=Floyd's Guitar Blues
TTITLE5=What's The Matter With The Mill?
TTITLE6=Rollin' and Tumblin'
TTITLE7=Mean Mistreater
TTITLE8=The Stuff You Gonna Watch
TTITLE9=I Just Want To Make Love To You
TTITLE10=Long Distance Call
TTITLE11=Louisiana Blues
TTITLE12=My Home Is My Delta
TTITLE13=Good Morning Scholl Girl
TTITLE14=My Captain
TTITLE15=Cold Weather Blues
TTITLE16=J.P.'s Boogie
TTITLE17=One More Mile
EXTD=
EXTT0=
EXTT1=
EXTT2=
EXTT3=
EXTT4=
EXTT5=
EXTT6=
EXTT7=
EXTT8=
EXTT9=
EXTT10=
EXTT11=
EXTT12=
EXTT13=
EXTT14=
EXTT15=
EXTT16=
EXTT17=
PLAYORDER=
